<svg width="75" height="75" viewBox="0 0 75 75" fill="none" xmlns="http://www.w3.org/2000/svg">
<g id="tabler:calendar-filled">
<g id="Group">
<path id="Vector" d="M50 6.25C50.7654 6.2501 51.5042 6.53111 52.0762 7.03974C52.6481 7.54836 53.0136 8.24922 53.1031 9.00937L53.125 9.375V12.5H56.25C58.6413 12.4999 60.9422 13.4135 62.6821 15.054C64.4219 16.6945 65.4691 18.9378 65.6094 21.325L65.625 21.875V59.375C65.6251 61.7663 64.7115 64.0672 63.071 65.8071C61.4305 67.5469 59.1872 68.5941 56.8 68.7344L56.25 68.75H18.75C16.3587 68.7501 14.0578 67.8365 12.3179 66.196C10.5781 64.5555 9.53091 62.3122 9.39063 59.925L9.375 59.375V21.875C9.37487 19.4837 10.2885 17.1828 11.929 15.4429C13.5695 13.7031 15.8128 12.6559 18.2 12.5156L18.75 12.5H21.875V9.375C21.8759 8.5785 22.1809 7.8124 22.7277 7.23322C23.2744 6.65405 24.0217 6.30552 24.8169 6.25884C25.612 6.21216 26.3949 6.47086 27.0057 6.98208C27.6165 7.4933 28.0091 8.21845 28.1031 9.00937L28.125 9.375V12.5H46.875V9.375C46.875 8.5462 47.2042 7.75134 47.7903 7.16529C48.3763 6.57924 49.1712 6.25 50 6.25ZM59.375 28.125H15.625V58.2031C15.625 60.4062 16.8312 62.2219 18.3844 62.4719L18.75 62.5H56.25C57.8531 62.5 59.175 60.8438 59.3531 58.7031L59.375 58.2031V28.125Z" fill="black"/>
<path id="Vector_2" d="M37.5 37.5C38.2654 37.5001 39.0042 37.7811 39.5762 38.2897C40.1482 38.7984 40.5136 39.4992 40.6031 40.2594L40.625 40.625V50C40.6241 50.7965 40.3191 51.5626 39.7724 52.1418C39.2256 52.721 38.4783 53.0695 37.6832 53.1162C36.888 53.1628 36.1051 52.9041 35.4943 52.3929C34.8835 51.8817 34.491 51.1566 34.3969 50.3656L34.375 50V43.75C33.5785 43.7491 32.8124 43.4441 32.2332 42.8973C31.6541 42.3506 31.3055 41.6033 31.2589 40.8081C31.2122 40.013 31.4709 39.2301 31.9821 38.6193C32.4933 38.0085 33.2185 37.6159 34.0094 37.5219L34.375 37.5H37.5Z" fill="black"/>
</g>
</g>
</svg>
