<svg width="75" height="76" viewBox="0 0 75 76" fill="none" xmlns="http://www.w3.org/2000/svg">
<g id="material-symbols:where-to-vote">
<path id="Vector" d="M34.2187 42.2188L49.6875 26.75L45.2344 22.2969L34.2187 33.3125L29.8438 28.9375L25.3906 33.3906L34.2187 42.2188ZM37.5 69.25C29.1146 62.1146 22.8521 55.4875 18.7125 49.3687C14.5729 43.25 12.5021 37.5854 12.5 32.375C12.5 24.5625 15.0135 18.3385 20.0406 13.7031C25.0677 9.06771 30.8875 6.75 37.5 6.75C44.1125 6.75 49.9333 9.06771 54.9625 13.7031C59.9917 18.3385 62.5042 24.5625 62.5 32.375C62.5 37.5833 60.4302 43.2479 56.2906 49.3687C52.151 55.4896 45.8875 62.1167 37.5 69.25Z" fill="black"/>
</g>
</svg>
