<svg width="75" height="75" viewBox="0 0 75 75" fill="none" xmlns="http://www.w3.org/2000/svg">
<g id="arcticons:priceconverter">
<path id="Vector" d="M45.6532 66.4062C57.1148 66.4062 66.4063 57.1148 66.4063 45.6531C66.4063 34.1915 57.1148 24.9 45.6532 24.9C34.1915 24.9 24.9 34.1915 24.9 45.6531C24.9 57.1148 34.1915 66.4062 45.6532 66.4062Z" stroke="black" stroke-linecap="round" stroke-linejoin="round"/>
<path id="Vector_2" d="M39.2422 53.5844C39.8571 54.36 40.6491 54.9768 41.5518 55.383C42.4544 55.7892 43.4413 55.9729 44.4297 55.9187H47.5437C48.9198 55.9187 50.2394 55.3721 51.2124 54.3991C52.1854 53.4261 52.732 52.1065 52.732 50.7305C52.732 49.3544 52.1854 48.0348 51.2124 47.0618C50.2394 46.0888 48.9198 45.5422 47.5437 45.5422H44.1703C42.7943 45.5422 41.4746 44.9956 40.5016 44.0226C39.5287 43.0496 38.982 41.7299 38.982 40.3539C38.982 38.9779 39.5287 37.6582 40.5016 36.6852C41.4746 35.7122 42.7943 35.1656 44.1703 35.1656H47.2844C48.2789 35.0536 49.2853 35.2111 50.1981 35.6219C51.1108 36.0326 51.8962 36.6813 52.4719 37.5M45.7266 32.3125V58.2531M25.7734 38.5812C25.0735 37.9252 24.5162 37.1319 24.1364 36.251C23.7565 35.37 23.5622 34.4203 23.5656 33.4609V26.7156C23.5619 25.7948 23.7406 24.8823 24.0913 24.0309C24.442 23.1794 24.9578 22.4059 25.609 21.7548C26.2603 21.1037 27.0339 20.5881 27.8855 20.2375C28.737 19.887 29.6495 19.7086 30.5703 19.7125C31.6109 19.7313 32.6355 19.9724 33.5752 20.4198C34.5149 20.8671 35.3481 21.5104 36.0187 22.3062M20.4531 27.2344H29.2734M20.4531 32.4219H29.2734" stroke="black" stroke-linecap="round" stroke-linejoin="round"/>
<path id="Vector_3" d="M25.0313 49.6469C21.3779 48.8701 18.0018 47.1218 15.2592 44.5863C12.5166 42.0508 10.5091 38.8221 9.44847 35.2408C8.38782 31.6595 8.31333 27.8584 9.23287 24.2383C10.1524 20.6182 12.0319 17.3134 14.673 14.6724C17.3142 12.0314 20.6192 10.1521 24.2393 9.23282C27.8595 8.31351 31.6606 8.38824 35.2418 9.44912C38.823 10.51 42.0516 12.5177 44.5869 15.2605C47.1222 18.0032 48.8704 21.3794 49.6469 25.0328" stroke="black" stroke-linecap="round" stroke-linejoin="round"/>
</g>
</svg>
