<svg width="24" height="25" viewBox="0 0 24 25" fill="none" xmlns="http://www.w3.org/2000/svg">
<g id="cuida:arrow-right-outline">
<path id="Vector" fill-rule="evenodd" clip-rule="evenodd" d="M18.5 12.714C18.5 12.4488 18.3946 12.1944 18.2071 12.0069C18.0196 11.8194 17.7652 11.714 17.5 11.714H5C4.73478 11.714 4.48043 11.8194 4.29289 12.0069C4.10536 12.1944 4 12.4488 4 12.714C4 12.9792 4.10536 13.2336 4.29289 13.4211C4.48043 13.6086 4.73478 13.714 5 13.714H17.5C17.7652 13.714 18.0196 13.6086 18.2071 13.4211C18.3946 13.2336 18.5 12.9792 18.5 12.714Z" fill="white"/>
<path id="Vector_2" fill-rule="evenodd" clip-rule="evenodd" d="M20 12.714C19.9999 12.4488 19.8945 12.1945 19.707 12.007L15.207 7.50699C15.1147 7.41148 15.0044 7.3353 14.8824 7.28289C14.7604 7.23048 14.6291 7.2029 14.4964 7.20174C14.3636 7.20059 14.2319 7.22589 14.109 7.27617C13.9861 7.32645 13.8745 7.40071 13.7806 7.4946C13.6867 7.58849 13.6124 7.70014 13.5621 7.82304C13.5119 7.94594 13.4866 8.07762 13.4877 8.2104C13.4889 8.34317 13.5164 8.47439 13.5689 8.5964C13.6213 8.7184 13.6974 8.82875 13.793 8.92099L17.586 12.714L13.793 16.507C13.6053 16.6945 13.4999 16.9489 13.4998 17.2141C13.4997 17.4794 13.605 17.7339 13.7925 17.9215C13.98 18.1091 14.2343 18.2146 14.4996 18.2147C14.7649 18.2148 15.0193 18.1095 15.207 17.922L19.707 13.422C19.7999 13.329 19.8737 13.2187 19.924 13.0972C19.9742 12.9757 20.0001 12.8455 20 12.714Z" fill="white"/>
</g>
</svg>
